<svg xmlns="http://www.w3.org/2000/svg" xmlns:xlink="http://www.w3.org/1999/xlink" width="606" height="610" viewBox="0 0 606 610">
  <defs>
    <clipPath id="clip-Custom_Size_1">
      <rect width="606" height="610"/>
    </clipPath>
  </defs>
  <g id="Custom_Size_1" data-name="Custom Size – 1" clip-path="url(#clip-Custom_Size_1)">
    <g id="sedqilogo1_copy11" data-name="sedqilogo1 copy11" transform="translate(117.125 -10.05)">
      <path id="Path_1" data-name="Path 1" d="M279.01,198.99l21.08-12.55,52.42,32.55-.47,138.55-.91,29.83,1.56,1.44c17.47,4.51,36.55,8.53,52.98,16.02,2.72,1.24,6.6,2.66,8.33,5.16-20.48-2.2-40.98-5.18-61.5-6.99a1625.687,1625.687,0,0,0-257.99-1.99c-28.86,2.11-57.76,5.8-86.5,8.99-.55-2.66.68-1.72,1.97-2.48,16.8-9.91,41-14.47,59.98-18.56.6-56.47-2-112.75-.76-169.26,16.34-12.85,35.13-22.31,52.76-33.24l20.05,12.55c1.58-21.89-3.2-45.9-1.05-67.55.17-1.68-.13-3.33,1.5-4.5l67.56-41.55,1.94.08,67.55,42.53-.49,70.99ZM197,153V130l-39,21.5V171Zm38-16-12-5v19.5a29.412,29.412,0,0,0,12,5.5Zm24,33V151.5L248,145v18.5C248.79,165.46,258.22,170.87,259,170ZM158,208a326.629,326.629,0,0,0,39-15.5V172l-39,18Zm77-32-12-4v19.5a24.1,24.1,0,0,0,12,5.5Zm24,33V190.5L248,185v18.5Zm-62,3-38.38,14.9-.69,1.56L159.01,245l38-12V212Zm38,25V216.5a21.717,21.717,0,0,0-12-4.5v19.5Zm24,10V227.5L248,222v20Zm71,11V236.5c-8.01-6.22-18.16-9.51-27-14.5v25ZM118,223,92,235v24l26-12Zm79,50V251l-38.02,13.48c-2.97,2.19,1.31,15.6.03,19.52Zm38-18-10.62-3.9c-2.93-.65-.47,4.75-.39,6.41.23,5.12-.25,10.29.11,15.39L235,276V255Zm24,10-11-4v18.5c2.8,2.81,7.04,5.26,11,5.5Zm71,34V276.5c-8.2-5.23-18.05-7.75-27-11.5v26ZM118,266a130.306,130.306,0,0,0-26,10.5V299l26-9.5Zm79,26-38,10v21l38-10.5Zm38,24V296.5a26.3,26.3,0,0,0-10.52-4.5c-3.08-.44-.48,2.03-.48,2.5v18Zm24-12-11-4v19.5a19.513,19.513,0,0,0,11,4.5ZM92,340c8.55-1.38,18.24-2.2,26-5.5V311l-26,7Zm211-29v23.5l1.69,1.31c6.59-.6,17.18,4.53,22.92,4.13.92-.06,2.4-.83,2.4-1.45v-19l-27-8.5ZM170,345v37h25.5c1.27,0,2.37-3.13,2.55-4.45,1.53-11.38-2.75-25.7-1.05-37.55Zm65-2-11-3v41l11,1Z" fill="#14522e"/>
      <path id="Path_2" data-name="Path 2" d="M309.65,78.35c14.27,14.23,29.74,34.99,36.37,54.13,7.36,21.26,5.97,43.32,5.98,65.51l-23.47-13.01c-.65-8.07.29-16.4-.54-24.47-5.98-58.09-69.79-96.43-117.31-119.27-46.25,22.81-108.8,58.98-116.54,115.38-1.34,9.77-.78,19.59-1.62,29.38L70.01,197.98c-.46-28.53-1.79-53.79,11.82-79.67C108.3,68.01,161.32,39.02,210.5,15.05c34.79,16.85,71.48,35.69,99.15,63.28Z" fill="#918c2c"/>
    </g>
    <text id="إدارة_العقار" data-name="إدارة العقار" transform="translate(56 481)" fill="#14522e" font-size="107" font-family="Tajawal-Bold, Tajawal" font-weight="700"><tspan x="0" y="0">إدارة العقار</tspan></text>
    <text id="Aqar_Management" data-name="Aqar Management" transform="translate(51 575)" fill="#14522e" stroke="#14532d" stroke-width="1" font-size="68" font-family="JFFlat-Regular, JF Flat" letter-spacing="-0.037em"><tspan x="0" y="0">Aqar Management</tspan></text>
  </g>
</svg>
