<svg xmlns="http://www.w3.org/2000/svg" xmlns:xlink="http://www.w3.org/1999/xlink" width="1439" height="141" viewBox="0 0 1439 141">
  <defs>
    <clipPath id="clip-path">
      <rect id="Rectangle_5" data-name="Rectangle 5" width="1440" height="141" fill="none"/>
    </clipPath>
    <clipPath id="clip-path-2">
      <rect id="Rectangle_3" data-name="Rectangle 3" width="1280" height="822" transform="translate(0 -0.37)" fill="none"/>
    </clipPath>
    <clipPath id="clip-Web_1920_1">
      <rect width="1439" height="141"/>
    </clipPath>
  </defs>
  <g id="Web_1920_1" data-name="Web 1920 – 1" clip-path="url(#clip-Web_1920_1)">
    <g id="hero" clip-path="url(#clip-path)">
      <rect id="Rectangle_1" data-name="Rectangle 1" width="1440" height="141" fill="none"/>
      <rect id="Rectangle_2" data-name="Rectangle 2" width="1440" height="141" fill="none"/>
      <g id="Group_1" data-name="Group 1" transform="translate(-80 -38.63)" clip-path="url(#clip-path-2)">
        <path id="Path_1" data-name="Path 1" d="M914.97,145.88a34.589,34.589,0,0,1-.055-9.264,37.624,37.624,0,0,1-17.5-2.006,35.473,35.473,0,0,1,10.924-13.364,35.347,35.347,0,0,1-10.924-13.364,37.386,37.386,0,0,1,17.5-2.007,34.033,34.033,0,0,1,2.077-16.888,36.5,36.5,0,0,1,13.831,10.52,36.218,36.218,0,0,1,13.831-10.52" transform="translate(80 35.583)" fill="none" stroke="rgba(188,150,97,0.5)" stroke-miterlimit="10" stroke-width="0.4"/>
        <path id="Path_2" data-name="Path 2" d="M946.694,97.26a33.512,33.512,0,0,1,0,8.915,37.385,37.385,0,0,1,17.5,2.007,35.471,35.471,0,0,1-10.924,13.364A35.331,35.331,0,0,1,964.19,134.91a37.622,37.622,0,0,1-17.5,2.006,34.032,34.032,0,0,1-2.077,16.888,36.489,36.489,0,0,1-13.83-10.52,36.225,36.225,0,0,1-13.831,10.52" transform="translate(80 35.299)" fill="none" stroke="rgba(188,150,97,0.5)" stroke-miterlimit="10" stroke-width="0.4"/>
        <path id="Path_3" data-name="Path 3" d="M966.754,86.439a36.691,36.691,0,0,1,21,11.951" transform="translate(80 35.67)" fill="none" stroke="rgba(188,150,97,0.5)" stroke-miterlimit="10" stroke-width="0.4"/>
        <path id="Path_4" data-name="Path 4" d="M987.753,144.9a36.747,36.747,0,0,1-21,11.95,32.468,32.468,0,0,0,.686-6.786,34.655,34.655,0,0,0-3.232-14.585,36.607,36.607,0,0,0,17.478-13.347,35.739,35.739,0,0,0-4.514-5.287,36.831,36.831,0,0,0-2.817-2.46" transform="translate(80 34.713)" fill="none" stroke="rgba(188,150,97,0.5)" stroke-miterlimit="10" stroke-width="0.4"/>
        <path id="Path_5" data-name="Path 5" d="M894.855,85.719a35.1,35.1,0,0,1,12.351-20.29" transform="translate(80 36.389)" fill="none" stroke="rgba(188,150,97,0.5)" stroke-miterlimit="10" stroke-width="0.4"/>
        <path id="Path_6" data-name="Path 6" d="M954.4,65.429a35.046,35.046,0,0,1,12.35,20.29,35.879,35.879,0,0,0-7.024-.663,37.727,37.727,0,0,0-15.095,3.14,35.2,35.2,0,0,0-8.359-12.544,36.212,36.212,0,0,0-5.453-4.344,36.164,36.164,0,0,0-5.453,4.344c-.578.558-1.156,1.151-1.679,1.745" transform="translate(80 36.389)" fill="none" stroke="rgba(188,150,97,0.5)" stroke-miterlimit="10" stroke-width="0.4"/>
        <path id="Path_7" data-name="Path 7" d="M894.855,157.933a36.694,36.694,0,0,1-21-11.951" transform="translate(80 33.631)" fill="none" stroke="rgba(188,150,97,0.5)" stroke-miterlimit="10" stroke-width="0.4"/>
        <path id="Path_8" data-name="Path 8" d="M873.856,98.39a36.752,36.752,0,0,1,21-11.951,32.475,32.475,0,0,0-.686,6.787,34.4,34.4,0,0,0,3.25,14.586,36.4,36.4,0,0,0-12.964,8.078,35.743,35.743,0,0,0-4.514,5.287,36.723,36.723,0,0,0,4.514,5.268,38.57,38.57,0,0,0,3.7,3.141" transform="translate(80 35.67)" fill="none" stroke="rgba(188,150,97,0.5)" stroke-miterlimit="10" stroke-width="0.4"/>
        <path id="Path_9" data-name="Path 9" d="M1126.86,145.88a34.221,34.221,0,0,1-.06-9.264,37.6,37.6,0,0,1-17.49-2.006,35.388,35.388,0,0,1,10.92-13.364,35.263,35.263,0,0,1-10.92-13.364,37.347,37.347,0,0,1,17.49-2.007,34.045,34.045,0,0,1,2.08-16.888,36.52,36.52,0,0,1,13.83,10.52,36.214,36.214,0,0,1,13.83-10.52" transform="translate(80 35.583)" fill="none" stroke="rgba(188,150,97,0.5)" stroke-miterlimit="10" stroke-width="0.4"/>
        <path id="Path_10" data-name="Path 10" d="M1158.56,97.26a33.274,33.274,0,0,1,0,8.915,37.4,37.4,0,0,1,17.5,2.007,35.515,35.515,0,0,1-10.93,13.364,35.374,35.374,0,0,1,10.93,13.364,37.641,37.641,0,0,1-17.5,2.006,34.04,34.04,0,0,1-2.07,16.888,36.477,36.477,0,0,1-13.84-10.52,36.214,36.214,0,0,1-13.83,10.52" transform="translate(80 35.299)" fill="none" stroke="rgba(188,150,97,0.5)" stroke-miterlimit="10" stroke-width="0.4"/>
        <path id="Path_11" data-name="Path 11" d="M1178.62,86.439a36.688,36.688,0,0,1,21,11.951" transform="translate(80 35.67)" fill="none" stroke="rgba(188,150,97,0.5)" stroke-miterlimit="10" stroke-width="0.4"/>
        <path id="Path_12" data-name="Path 12" d="M1199.64,144.9a36.75,36.75,0,0,1-21,11.95,32.4,32.4,0,0,0,.69-6.786,34.629,34.629,0,0,0-3.24-14.585,36.534,36.534,0,0,0,17.48-13.347,36.01,36.01,0,0,0-4.51-5.287,35.418,35.418,0,0,0-2.82-2.46" transform="translate(80 34.713)" fill="none" stroke="rgba(188,150,97,0.5)" stroke-miterlimit="10" stroke-width="0.4"/>
        <path id="Path_13" data-name="Path 13" d="M1106.74,85.719a35.141,35.141,0,0,1,12.35-20.29" transform="translate(80 36.389)" fill="none" stroke="rgba(188,150,97,0.5)" stroke-miterlimit="10" stroke-width="0.4"/>
        <path id="Path_14" data-name="Path 14" d="M1166.27,65.429a35.036,35.036,0,0,1,12.35,20.29,35.816,35.816,0,0,0-7.02-.663,37.769,37.769,0,0,0-15.1,3.14,35.1,35.1,0,0,0-8.36-12.544,35.993,35.993,0,0,0-5.45-4.344,36,36,0,0,0-5.45,4.344c-.58.558-1.16,1.151-1.68,1.745" transform="translate(80 36.389)" fill="none" stroke="rgba(188,150,97,0.5)" stroke-miterlimit="10" stroke-width="0.4"/>
        <path id="Path_15" data-name="Path 15" d="M1106.74,157.933a36.688,36.688,0,0,1-21-11.951" transform="translate(80 33.631)" fill="none" stroke="rgba(188,150,97,0.5)" stroke-miterlimit="10" stroke-width="0.4"/>
        <path id="Path_16" data-name="Path 16" d="M1085.72,98.39a36.751,36.751,0,0,1,21-11.951,32.408,32.408,0,0,0-.68,6.787,34.341,34.341,0,0,0,3.25,14.586,36.424,36.424,0,0,0-12.97,8.078,36.01,36.01,0,0,0-4.51,5.287,37.137,37.137,0,0,0,4.51,5.268,39.55,39.55,0,0,0,3.7,3.141" transform="translate(80 35.67)" fill="none" stroke="rgba(188,150,97,0.5)" stroke-miterlimit="10" stroke-width="0.4"/>
        <path id="Path_17" data-name="Path 17" d="M1072.67,136.272l14.88-14.393L1072.67,107.5" transform="translate(80 34.949)" fill="none" stroke="rgba(188,150,97,0.5)" stroke-miterlimit="10" stroke-width="0.4"/>
        <path id="Path_18" data-name="Path 18" d="M1000.79,107.5l-14.879,14.376,14.879,14.393" transform="translate(80 34.949)" fill="none" stroke="rgba(188,150,97,0.5)" stroke-miterlimit="10" stroke-width="0.4"/>
        <path id="Path_19" data-name="Path 19" d="M1051.62,85.929l-14.88-14.376-14.9,14.376" transform="translate(80 36.18)" fill="none" stroke="rgba(188,150,97,0.5)" stroke-miterlimit="10" stroke-width="0.4"/>
        <path id="Path_20" data-name="Path 20" d="M1065.81,122.407l-8.52,8.217v11.637h-12.05l-8.5,8.218-8.52-8.218h-12.05V130.624" transform="translate(80 34.438)" fill="none" stroke="rgba(188,150,97,0.5)" stroke-miterlimit="10" stroke-width="0.4"/>
        <path id="Path_21" data-name="Path 21" d="M1057.29,113.176V101.539h-12.05l-8.5-8.217-8.52,8.217h-12.05v11.637l-8.5,8.235" transform="translate(80 35.434)" fill="none" stroke="rgba(188,150,97,0.5)" stroke-miterlimit="10" stroke-width="0.4"/>
        <path id="Path_22" data-name="Path 22" d="M1013.14,73.378,987.753,97.942" transform="translate(80 36.117)" fill="none" stroke="rgba(188,150,97,0.5)" stroke-miterlimit="10" stroke-width="0.4"/>
        <path id="Path_23" data-name="Path 23" d="M1085.72,97.942l-25.38-24.565" transform="translate(80 36.117)" fill="none" stroke="rgba(188,150,97,0.5)" stroke-miterlimit="10" stroke-width="0.4"/>
        <path id="Path_24" data-name="Path 24" d="M1060.34,170.547l25.38-24.565" transform="translate(80 33.631)" fill="none" stroke="rgba(188,150,97,0.5)" stroke-miterlimit="10" stroke-width="0.4"/>
        <path id="Path_25" data-name="Path 25" d="M987.753,145.982l25.387,24.565" transform="translate(80 33.631)" fill="none" stroke="rgba(188,150,97,0.5)" stroke-miterlimit="10" stroke-width="0.4"/>
        <path id="Path_26" data-name="Path 26" d="M860.766,136.272l14.9-14.393-14.9-14.376" transform="translate(80 34.949)" fill="none" stroke="rgba(188,150,97,0.5)" stroke-miterlimit="10" stroke-width="0.4"/>
        <path id="Path_27" data-name="Path 27" d="M788.885,107.5l-14.878,14.376,14.878,14.393" transform="translate(80 34.949)" fill="none" stroke="rgba(188,150,97,0.5)" stroke-miterlimit="10" stroke-width="0.4"/>
        <path id="Path_28" data-name="Path 28" d="M839.713,85.929,824.835,71.553l-14.9,14.376" transform="translate(80 36.18)" fill="none" stroke="rgba(188,150,97,0.5)" stroke-miterlimit="10" stroke-width="0.4"/>
        <path id="Path_29" data-name="Path 29" d="M853.905,122.407l-8.523,8.217v11.637H833.339l-8.5,8.218-8.523-8.218H804.287V130.624" transform="translate(80 34.438)" fill="none" stroke="rgba(188,150,97,0.5)" stroke-miterlimit="10" stroke-width="0.4"/>
        <path id="Path_30" data-name="Path 30" d="M845.382,113.176V101.539H833.339l-8.5-8.217-8.523,8.217H804.287v11.637l-8.522,8.235" transform="translate(80 35.434)" fill="none" stroke="rgba(188,150,97,0.5)" stroke-miterlimit="10" stroke-width="0.4"/>
        <path id="Path_31" data-name="Path 31" d="M801.236,73.378,775.849,97.942" transform="translate(80 36.117)" fill="none" stroke="rgba(188,150,97,0.5)" stroke-miterlimit="10" stroke-width="0.4"/>
        <path id="Path_32" data-name="Path 32" d="M873.838,97.942l-25.4-24.565" transform="translate(80 36.117)" fill="none" stroke="rgba(188,150,97,0.5)" stroke-miterlimit="10" stroke-width="0.4"/>
        <path id="Path_33" data-name="Path 33" d="M848.434,170.547l25.4-24.565" transform="translate(80 33.631)" fill="none" stroke="rgba(188,150,97,0.5)" stroke-miterlimit="10" stroke-width="0.4"/>
        <path id="Path_34" data-name="Path 34" d="M775.849,145.982l25.387,24.565" transform="translate(80 33.631)" fill="none" stroke="rgba(188,150,97,0.5)" stroke-miterlimit="10" stroke-width="0.4"/>
        <path id="Path_35" data-name="Path 35" d="M491.18,145.88a34.586,34.586,0,0,1-.054-9.264,37.621,37.621,0,0,1-17.5-2.006,35.461,35.461,0,0,1,10.923-13.364,35.335,35.335,0,0,1-10.923-13.364,37.385,37.385,0,0,1,17.5-2.007A34.032,34.032,0,0,1,493.2,88.986a36.493,36.493,0,0,1,13.831,10.52,36.218,36.218,0,0,1,13.831-10.52" transform="translate(80 35.583)" fill="none" stroke="rgba(188,150,97,0.5)" stroke-miterlimit="10" stroke-width="0.4"/>
        <path id="Path_36" data-name="Path 36" d="M522.9,97.26a33.512,33.512,0,0,1,0,8.915,37.385,37.385,0,0,1,17.5,2.007,35.462,35.462,0,0,1-10.924,13.364A35.322,35.322,0,0,1,540.4,134.91a37.623,37.623,0,0,1-17.5,2.006,34.043,34.043,0,0,1-2.076,16.888A36.492,36.492,0,0,1,507,143.284a36.218,36.218,0,0,1-13.831,10.52" transform="translate(80 35.299)" fill="none" stroke="rgba(188,150,97,0.5)" stroke-miterlimit="10" stroke-width="0.4"/>
        <path id="Path_37" data-name="Path 37" d="M542.964,86.439a36.692,36.692,0,0,1,21,11.951" transform="translate(80 35.67)" fill="none" stroke="rgba(188,150,97,0.5)" stroke-miterlimit="10" stroke-width="0.4"/>
        <path id="Path_38" data-name="Path 38" d="M563.963,144.9a36.747,36.747,0,0,1-21,11.95,32.4,32.4,0,0,0,.686-6.786,34.64,34.64,0,0,0-3.232-14.585A36.607,36.607,0,0,0,557.9,122.132a35.68,35.68,0,0,0-4.514-5.287,36.631,36.631,0,0,0-2.816-2.46" transform="translate(80 34.713)" fill="none" stroke="rgba(188,150,97,0.5)" stroke-miterlimit="10" stroke-width="0.4"/>
        <path id="Path_39" data-name="Path 39" d="M471.084,85.719a35.1,35.1,0,0,1,12.35-20.29" transform="translate(80 36.389)" fill="none" stroke="rgba(188,150,97,0.5)" stroke-miterlimit="10" stroke-width="0.4"/>
        <path id="Path_40" data-name="Path 40" d="M530.614,65.429a35.046,35.046,0,0,1,12.35,20.29,35.878,35.878,0,0,0-7.024-.663,37.719,37.719,0,0,0-15.094,3.14,35.206,35.206,0,0,0-8.36-12.544,36.164,36.164,0,0,0-5.453-4.344,36.164,36.164,0,0,0-5.453,4.344c-.578.558-1.156,1.151-1.679,1.745" transform="translate(80 36.389)" fill="none" stroke="rgba(188,150,97,0.5)" stroke-miterlimit="10" stroke-width="0.4"/>
        <path id="Path_41" data-name="Path 41" d="M471.084,157.933a36.691,36.691,0,0,1-21-11.951" transform="translate(80 33.631)" fill="none" stroke="rgba(188,150,97,0.5)" stroke-miterlimit="10" stroke-width="0.4"/>
        <path id="Path_42" data-name="Path 42" d="M450.067,98.39a36.749,36.749,0,0,1,21-11.951,32.407,32.407,0,0,0-.687,6.787,34.388,34.388,0,0,0,3.251,14.586,36.4,36.4,0,0,0-12.965,8.078,35.741,35.741,0,0,0-4.514,5.287,36.719,36.719,0,0,0,4.514,5.268,38.563,38.563,0,0,0,3.7,3.141" transform="translate(80 35.67)" fill="none" stroke="rgba(188,150,97,0.5)" stroke-miterlimit="10" stroke-width="0.4"/>
        <path id="Path_43" data-name="Path 43" d="M703.066,145.88a34.546,34.546,0,0,1-.054-9.264,37.626,37.626,0,0,1-17.5-2.006,35.473,35.473,0,0,1,10.924-13.364,35.347,35.347,0,0,1-10.924-13.364,37.389,37.389,0,0,1,17.5-2.007,34.02,34.02,0,0,1,2.076-16.888,36.493,36.493,0,0,1,13.831,10.52,36.218,36.218,0,0,1,13.831-10.52" transform="translate(80 35.583)" fill="none" stroke="rgba(188,150,97,0.5)" stroke-miterlimit="10" stroke-width="0.4"/>
        <path id="Path_44" data-name="Path 44" d="M734.79,97.26a33.512,33.512,0,0,1,0,8.915,37.385,37.385,0,0,1,17.5,2.007,35.471,35.471,0,0,1-10.924,13.364,35.331,35.331,0,0,1,10.924,13.364,37.622,37.622,0,0,1-17.5,2.006,34.032,34.032,0,0,1-2.077,16.888,36.5,36.5,0,0,1-13.83-10.52,36.218,36.218,0,0,1-13.831,10.52" transform="translate(80 35.299)" fill="none" stroke="rgba(188,150,97,0.5)" stroke-miterlimit="10" stroke-width="0.4"/>
        <path id="Path_45" data-name="Path 45" d="M754.85,86.439a36.691,36.691,0,0,1,21,11.951" transform="translate(80 35.67)" fill="none" stroke="rgba(188,150,97,0.5)" stroke-miterlimit="10" stroke-width="0.4"/>
        <path id="Path_46" data-name="Path 46" d="M775.849,144.9a36.747,36.747,0,0,1-21,11.95,32.468,32.468,0,0,0,.686-6.786,34.655,34.655,0,0,0-3.232-14.585,36.607,36.607,0,0,0,17.478-13.347,35.68,35.68,0,0,0-4.514-5.287,36.831,36.831,0,0,0-2.817-2.46" transform="translate(80 34.713)" fill="none" stroke="rgba(188,150,97,0.5)" stroke-miterlimit="10" stroke-width="0.4"/>
        <path id="Path_47" data-name="Path 47" d="M682.951,85.719A35.1,35.1,0,0,1,695.3,65.429" transform="translate(80 36.389)" fill="none" stroke="rgba(188,150,97,0.5)" stroke-miterlimit="10" stroke-width="0.4"/>
        <path id="Path_48" data-name="Path 48" d="M742.5,65.429a35.046,35.046,0,0,1,12.35,20.29,35.878,35.878,0,0,0-7.024-.663,37.727,37.727,0,0,0-15.095,3.14,35.2,35.2,0,0,0-8.359-12.544,36.212,36.212,0,0,0-5.453-4.344,36.164,36.164,0,0,0-5.453,4.344c-.578.558-1.156,1.151-1.679,1.745" transform="translate(80 36.389)" fill="none" stroke="rgba(188,150,97,0.5)" stroke-miterlimit="10" stroke-width="0.4"/>
        <path id="Path_49" data-name="Path 49" d="M682.951,157.933a36.692,36.692,0,0,1-21-11.951" transform="translate(80 33.631)" fill="none" stroke="rgba(188,150,97,0.5)" stroke-miterlimit="10" stroke-width="0.4"/>
        <path id="Path_50" data-name="Path 50" d="M661.953,98.39a36.749,36.749,0,0,1,21-11.951,32.475,32.475,0,0,0-.686,6.787,34.4,34.4,0,0,0,3.25,14.586,36.4,36.4,0,0,0-12.964,8.078,35.739,35.739,0,0,0-4.514,5.287,36.719,36.719,0,0,0,4.514,5.268,38.563,38.563,0,0,0,3.7,3.141" transform="translate(80 35.67)" fill="none" stroke="rgba(188,150,97,0.5)" stroke-miterlimit="10" stroke-width="0.4"/>
        <path id="Path_51" data-name="Path 51" d="M648.9,136.272l14.878-14.393L648.9,107.5" transform="translate(80 34.949)" fill="none" stroke="rgba(188,150,97,0.5)" stroke-miterlimit="10" stroke-width="0.4"/>
        <path id="Path_52" data-name="Path 52" d="M577.018,107.5l-14.9,14.376,14.9,14.393" transform="translate(80 34.949)" fill="none" stroke="rgba(188,150,97,0.5)" stroke-miterlimit="10" stroke-width="0.4"/>
        <path id="Path_53" data-name="Path 53" d="M627.845,85.929l-14.9-14.376L598.071,85.929" transform="translate(80 36.18)" fill="none" stroke="rgba(188,150,97,0.5)" stroke-miterlimit="10" stroke-width="0.4"/>
        <path id="Path_54" data-name="Path 54" d="M642.019,122.407l-8.523,8.217v11.637H621.471l-8.522,8.218-8.505-8.218H592.4V130.624" transform="translate(80 34.438)" fill="none" stroke="rgba(188,150,97,0.5)" stroke-miterlimit="10" stroke-width="0.4"/>
        <path id="Path_55" data-name="Path 55" d="M633.5,113.176V101.539H621.471l-8.522-8.217-8.505,8.217H592.4v11.637l-8.522,8.235" transform="translate(80 35.434)" fill="none" stroke="rgba(188,150,97,0.5)" stroke-miterlimit="10" stroke-width="0.4"/>
        <path id="Path_56" data-name="Path 56" d="M589.35,73.378,563.963,97.942" transform="translate(80 36.117)" fill="none" stroke="rgba(188,150,97,0.5)" stroke-miterlimit="10" stroke-width="0.4"/>
        <path id="Path_57" data-name="Path 57" d="M661.953,97.942,636.548,73.378" transform="translate(80 36.117)" fill="none" stroke="rgba(188,150,97,0.5)" stroke-miterlimit="10" stroke-width="0.4"/>
        <path id="Path_58" data-name="Path 58" d="M636.548,170.547l25.405-24.565" transform="translate(80 33.631)" fill="none" stroke="rgba(188,150,97,0.5)" stroke-miterlimit="10" stroke-width="0.4"/>
        <path id="Path_59" data-name="Path 59" d="M563.963,145.982l25.387,24.565" transform="translate(80 33.631)" fill="none" stroke="rgba(188,150,97,0.5)" stroke-miterlimit="10" stroke-width="0.4"/>
        <path id="Path_60" data-name="Path 60" d="M436.994,136.272l14.878-14.393L436.994,107.5" transform="translate(80 34.949)" fill="none" stroke="rgba(188,150,97,0.5)" stroke-miterlimit="10" stroke-width="0.4"/>
        <path id="Path_61" data-name="Path 61" d="M365.114,107.5l-14.878,14.376,14.878,14.393" transform="translate(80 34.949)" fill="none" stroke="rgba(188,150,97,0.5)" stroke-miterlimit="10" stroke-width="0.4"/>
        <path id="Path_62" data-name="Path 62" d="M415.941,85.929l-14.9-14.376L386.167,85.929" transform="translate(80 36.18)" fill="none" stroke="rgba(188,150,97,0.5)" stroke-miterlimit="10" stroke-width="0.4"/>
        <path id="Path_63" data-name="Path 63" d="M430.115,122.407l-8.5,8.217v11.637H409.567l-8.522,8.218-8.5-8.218H380.5V130.624" transform="translate(80 34.438)" fill="none" stroke="rgba(188,150,97,0.5)" stroke-miterlimit="10" stroke-width="0.4"/>
        <path id="Path_64" data-name="Path 64" d="M421.611,113.176V101.539H409.567l-8.522-8.217-8.505,8.217H380.5v11.637l-8.522,8.235" transform="translate(80 35.434)" fill="none" stroke="rgba(188,150,97,0.5)" stroke-miterlimit="10" stroke-width="0.4"/>
        <path id="Path_65" data-name="Path 65" d="M377.446,73.378,352.077,97.942" transform="translate(80 36.117)" fill="none" stroke="rgba(188,150,97,0.5)" stroke-miterlimit="10" stroke-width="0.4"/>
        <path id="Path_66" data-name="Path 66" d="M450.049,97.942l-25.4-24.565" transform="translate(80 36.117)" fill="none" stroke="rgba(188,150,97,0.5)" stroke-miterlimit="10" stroke-width="0.4"/>
        <path id="Path_67" data-name="Path 67" d="M424.644,170.547l25.4-24.565" transform="translate(80 33.631)" fill="none" stroke="rgba(188,150,97,0.5)" stroke-miterlimit="10" stroke-width="0.4"/>
        <path id="Path_68" data-name="Path 68" d="M352.077,145.982l25.369,24.565" transform="translate(80 33.631)" fill="none" stroke="rgba(188,150,97,0.5)" stroke-miterlimit="10" stroke-width="0.4"/>
        <path id="Path_69" data-name="Path 69" d="M67.408,145.88a34.6,34.6,0,0,1-.054-9.264,37.623,37.623,0,0,1-17.5-2.006,35.466,35.466,0,0,1,10.924-13.364,35.34,35.34,0,0,1-10.924-13.364,37.386,37.386,0,0,1,17.5-2.007A34.033,34.033,0,0,1,69.43,88.986a36.494,36.494,0,0,1,13.831,10.52,36.22,36.22,0,0,1,13.831-10.52" transform="translate(80 35.583)" fill="none" stroke="rgba(188,150,97,0.5)" stroke-miterlimit="10" stroke-width="0.4"/>
        <path id="Path_70" data-name="Path 70" d="M99.132,97.26a33.49,33.49,0,0,1,0,8.915,37.383,37.383,0,0,1,17.5,2.007,35.468,35.468,0,0,1-10.923,13.364,35.328,35.328,0,0,1,10.923,13.364,37.62,37.62,0,0,1-17.5,2.006A34.033,34.033,0,0,1,97.056,153.8a36.494,36.494,0,0,1-13.831-10.52A36.219,36.219,0,0,1,69.394,153.8" transform="translate(80 35.299)" fill="none" stroke="rgba(188,150,97,0.5)" stroke-miterlimit="10" stroke-width="0.4"/>
        <path id="Path_71" data-name="Path 71" d="M119.174,86.439a36.691,36.691,0,0,1,21,11.951" transform="translate(80 35.67)" fill="none" stroke="rgba(188,150,97,0.5)" stroke-miterlimit="10" stroke-width="0.4"/>
        <path id="Path_72" data-name="Path 72" d="M140.191,144.9a36.747,36.747,0,0,1-21,11.95,32.4,32.4,0,0,0,.686-6.786,34.64,34.64,0,0,0-3.232-14.585,36.605,36.605,0,0,0,17.479-13.347,35.741,35.741,0,0,0-4.514-5.287,36.835,36.835,0,0,0-2.817-2.46" transform="translate(80 34.713)" fill="none" stroke="rgba(188,150,97,0.5)" stroke-miterlimit="10" stroke-width="0.4"/>
        <path id="Path_73" data-name="Path 73" d="M47.294,85.719a35.1,35.1,0,0,1,12.35-20.29" transform="translate(80 36.389)" fill="none" stroke="rgba(188,150,97,0.5)" stroke-miterlimit="10" stroke-width="0.4"/>
        <path id="Path_74" data-name="Path 74" d="M106.842,65.429a35.041,35.041,0,0,1,12.35,20.29,35.875,35.875,0,0,0-7.023-.663,37.72,37.72,0,0,0-15.1,3.14,35.2,35.2,0,0,0-8.36-12.544,36.177,36.177,0,0,0-5.453-4.344,36.182,36.182,0,0,0-5.453,4.344c-.578.558-1.155,1.151-1.679,1.745" transform="translate(80 36.389)" fill="none" stroke="rgba(188,150,97,0.5)" stroke-miterlimit="10" stroke-width="0.4"/>
        <path id="Path_75" data-name="Path 75" d="M47.294,157.933a36.693,36.693,0,0,1-21-11.951" transform="translate(80 33.631)" fill="none" stroke="rgba(188,150,97,0.5)" stroke-miterlimit="10" stroke-width="0.4"/>
        <path id="Path_76" data-name="Path 76" d="M26.295,98.39a36.75,36.75,0,0,1,21-11.951,32.447,32.447,0,0,0-.686,6.787,34.394,34.394,0,0,0,3.25,14.586,36.393,36.393,0,0,0-12.964,8.078,35.722,35.722,0,0,0-4.514,5.287,36.707,36.707,0,0,0,4.514,5.268,38.525,38.525,0,0,0,3.7,3.141" transform="translate(80 35.67)" fill="none" stroke="rgba(188,150,97,0.5)" stroke-miterlimit="10" stroke-width="0.4"/>
        <path id="Path_77" data-name="Path 77" d="M279.276,145.88a34.628,34.628,0,0,1-.054-9.264,37.622,37.622,0,0,1-17.5-2.006,35.461,35.461,0,0,1,10.923-13.364,35.335,35.335,0,0,1-10.923-13.364,37.385,37.385,0,0,1,17.5-2.007A34.032,34.032,0,0,1,281.3,88.986a36.493,36.493,0,0,1,13.831,10.52,36.218,36.218,0,0,1,13.831-10.52" transform="translate(80 35.583)" fill="none" stroke="rgba(188,150,97,0.5)" stroke-miterlimit="10" stroke-width="0.4"/>
        <path id="Path_78" data-name="Path 78" d="M311,97.26a33.515,33.515,0,0,1,0,8.915,37.385,37.385,0,0,1,17.5,2.007,35.471,35.471,0,0,1-10.924,13.364A35.331,35.331,0,0,1,328.5,134.91a37.622,37.622,0,0,1-17.5,2.006,34.043,34.043,0,0,1-2.076,16.888,36.492,36.492,0,0,1-13.831-10.52,36.218,36.218,0,0,1-13.831,10.52" transform="translate(80 35.299)" fill="none" stroke="rgba(188,150,97,0.5)" stroke-miterlimit="10" stroke-width="0.4"/>
        <path id="Path_79" data-name="Path 79" d="M331.06,86.439a36.691,36.691,0,0,1,21,11.951" transform="translate(80 35.67)" fill="none" stroke="rgba(188,150,97,0.5)" stroke-miterlimit="10" stroke-width="0.4"/>
        <path id="Path_80" data-name="Path 80" d="M352.077,144.9a36.747,36.747,0,0,1-21,11.95,32.4,32.4,0,0,0,.686-6.786,34.64,34.64,0,0,0-3.232-14.585,36.608,36.608,0,0,0,17.478-13.347,35.682,35.682,0,0,0-4.514-5.287,36.631,36.631,0,0,0-2.816-2.46" transform="translate(80 34.713)" fill="none" stroke="rgba(188,150,97,0.5)" stroke-miterlimit="10" stroke-width="0.4"/>
        <path id="Path_81" data-name="Path 81" d="M259.18,85.719a35.1,35.1,0,0,1,12.35-20.29" transform="translate(80 36.389)" fill="none" stroke="rgba(188,150,97,0.5)" stroke-miterlimit="10" stroke-width="0.4"/>
        <path id="Path_82" data-name="Path 82" d="M318.71,65.429a35.046,35.046,0,0,1,12.35,20.29,35.878,35.878,0,0,0-7.024-.663,37.719,37.719,0,0,0-15.094,3.14,35.205,35.205,0,0,0-8.36-12.544,36.162,36.162,0,0,0-5.453-4.344,36.162,36.162,0,0,0-5.453,4.344C289.1,76.211,288.52,76.8,288,77.4" transform="translate(80 36.389)" fill="none" stroke="rgba(188,150,97,0.5)" stroke-miterlimit="10" stroke-width="0.4"/>
        <path id="Path_83" data-name="Path 83" d="M259.18,157.933a36.691,36.691,0,0,1-21-11.951" transform="translate(80 33.631)" fill="none" stroke="rgba(188,150,97,0.5)" stroke-miterlimit="10" stroke-width="0.4"/>
        <path id="Path_84" data-name="Path 84" d="M238.163,98.39a36.749,36.749,0,0,1,21-11.951,32.407,32.407,0,0,0-.687,6.787,34.387,34.387,0,0,0,3.251,14.586,36.4,36.4,0,0,0-12.965,8.078,35.742,35.742,0,0,0-4.514,5.287,36.721,36.721,0,0,0,4.514,5.268,38.567,38.567,0,0,0,3.7,3.141" transform="translate(80 35.67)" fill="none" stroke="rgba(188,150,97,0.5)" stroke-miterlimit="10" stroke-width="0.4"/>
        <path id="Path_85" data-name="Path 85" d="M225.108,136.272l14.878-14.393L225.108,107.5" transform="translate(80 34.949)" fill="none" stroke="rgba(188,150,97,0.5)" stroke-miterlimit="10" stroke-width="0.4"/>
        <path id="Path_86" data-name="Path 86" d="M153.228,107.5,138.35,121.879l14.878,14.393" transform="translate(80 34.949)" fill="none" stroke="rgba(188,150,97,0.5)" stroke-miterlimit="10" stroke-width="0.4"/>
        <path id="Path_87" data-name="Path 87" d="M204.055,85.929,189.177,71.553l-14.9,14.376" transform="translate(80 36.18)" fill="none" stroke="rgba(188,150,97,0.5)" stroke-miterlimit="10" stroke-width="0.4"/>
        <path id="Path_88" data-name="Path 88" d="M218.229,122.407l-8.5,8.217v11.637H197.681l-8.5,8.218-8.522-8.218H168.611V130.624" transform="translate(80 34.438)" fill="none" stroke="rgba(188,150,97,0.5)" stroke-miterlimit="10" stroke-width="0.4"/>
        <path id="Path_89" data-name="Path 89" d="M209.725,113.176V101.539H197.681l-8.5-8.217-8.522,8.217H168.611v11.637l-8.5,8.235" transform="translate(80 35.434)" fill="none" stroke="rgba(188,150,97,0.5)" stroke-miterlimit="10" stroke-width="0.4"/>
        <path id="Path_90" data-name="Path 90" d="M165.578,73.378,140.191,97.942" transform="translate(80 36.117)" fill="none" stroke="rgba(188,150,97,0.5)" stroke-miterlimit="10" stroke-width="0.4"/>
        <path id="Path_91" data-name="Path 91" d="M238.162,97.942l-25.4-24.565" transform="translate(80 36.117)" fill="none" stroke="rgba(188,150,97,0.5)" stroke-miterlimit="10" stroke-width="0.4"/>
        <path id="Path_92" data-name="Path 92" d="M212.758,170.547l25.4-24.565" transform="translate(80 33.631)" fill="none" stroke="rgba(188,150,97,0.5)" stroke-miterlimit="10" stroke-width="0.4"/>
        <path id="Path_93" data-name="Path 93" d="M140.191,145.982l25.387,24.565" transform="translate(80 33.631)" fill="none" stroke="rgba(188,150,97,0.5)" stroke-miterlimit="10" stroke-width="0.4"/>
        <path id="Path_94" data-name="Path 94" d="M13.2,136.272l14.9-14.393L13.2,107.5" transform="translate(80 34.949)" fill="none" stroke="rgba(188,150,97,0.5)" stroke-miterlimit="10" stroke-width="0.4"/>
        <path id="Path_95" data-name="Path 95" d="M6.343,122.407l-8.522,8.217v11.637H-14.222l-8.5,8.218-8.522-8.218H-43.292V130.624" transform="translate(80 34.438)" fill="none" stroke="rgba(188,150,97,0.5)" stroke-miterlimit="10" stroke-width="0.4"/>
        <path id="Path_96" data-name="Path 96" d="M26.277,97.942.872,73.378" transform="translate(80 36.117)" fill="none" stroke="rgba(188,150,97,0.5)" stroke-miterlimit="10" stroke-width="0.4"/>
        <path id="Path_97" data-name="Path 97" d="M.872,170.547l25.4-24.565" transform="translate(80 33.631)" fill="none" stroke="rgba(188,150,97,0.5)" stroke-miterlimit="10" stroke-width="0.4"/>
        <path id="Path_98" data-name="Path 98" d="M205.03,40.812a34.543,34.543,0,0,0,.054-9.264,37.622,37.622,0,0,0,17.5-2.006,35.475,35.475,0,0,0-10.924-13.364A35.342,35.342,0,0,0,222.581,2.813a37.4,37.4,0,0,0-17.5-2.006,34.021,34.021,0,0,0-2.076-16.888,36.492,36.492,0,0,0-13.831,10.52,36.218,36.218,0,0,0-13.831-10.52" transform="translate(80 39.181)" fill="none" stroke="rgba(188,150,97,0.5)" stroke-miterlimit="10" stroke-width="0.4"/>
        <path id="Path_99" data-name="Path 99" d="M173.306-7.79a33.516,33.516,0,0,0,0,8.915,37.392,37.392,0,0,0-17.5,2.006A35.466,35.466,0,0,0,166.734,16.5,35.332,35.332,0,0,0,155.81,29.86a37.619,37.619,0,0,0,17.5,2.006,34.033,34.033,0,0,0,2.077,16.888,36.489,36.489,0,0,0,13.83-10.52,36.226,36.226,0,0,0,13.831,10.52" transform="translate(80 38.897)" fill="none" stroke="rgba(188,150,97,0.5)" stroke-miterlimit="10" stroke-width="0.4"/>
        <path id="Path_100" data-name="Path 100" d="M153.264,53.289a35.1,35.1,0,0,0,12.35,20.29" transform="translate(80 36.805)" fill="none" stroke="rgba(188,150,97,0.5)" stroke-miterlimit="10" stroke-width="0.4"/>
        <path id="Path_101" data-name="Path 101" d="M132.247,39.832a36.748,36.748,0,0,0,21,11.951A32.473,32.473,0,0,1,152.56,45a34.658,34.658,0,0,1,3.232-14.585,36.805,36.805,0,0,1-12.964-8.078,36.736,36.736,0,0,1-4.514-5.269,35.75,35.75,0,0,1,4.514-5.286,36.979,36.979,0,0,1,2.817-2.46" transform="translate(80 38.311)" fill="none" stroke="rgba(188,150,97,0.5)" stroke-miterlimit="10" stroke-width="0.4"/>
        <path id="Path_102" data-name="Path 102" d="M212.794,73.492A35.042,35.042,0,0,0,225.145,53.2a35.885,35.885,0,0,1-7.024.663,37.72,37.72,0,0,1-15.1-3.14,35.193,35.193,0,0,1-8.36,12.544,36.162,36.162,0,0,1-5.453,4.344,36.2,36.2,0,0,1-5.452-4.344,36.777,36.777,0,0,1-3.2-3.507" transform="translate(80 36.893)" fill="none" stroke="rgba(188,150,97,0.5)" stroke-miterlimit="10" stroke-width="0.4"/>
        <path id="Path_103" data-name="Path 103" d="M225.145,52.865a36.7,36.7,0,0,0,21-11.951" transform="translate(80 37.229)" fill="none" stroke="rgba(188,150,97,0.5)" stroke-miterlimit="10" stroke-width="0.4"/>
        <path id="Path_104" data-name="Path 104" d="M246.144-6.678a36.755,36.755,0,0,0-21-11.951,32.474,32.474,0,0,1,.686,6.787,34.4,34.4,0,0,1-3.25,14.585,36.408,36.408,0,0,1,12.964,8.078,35.755,35.755,0,0,1,4.514,5.286,36.731,36.731,0,0,1-4.514,5.269,38.746,38.746,0,0,1-3.7,3.14" transform="translate(80 39.268)" fill="none" stroke="rgba(188,150,97,0.5)" stroke-miterlimit="10" stroke-width="0.4"/>
        <path id="Path_105" data-name="Path 105" d="M-6.838,40.812a34.6,34.6,0,0,0,.054-9.264,37.618,37.618,0,0,0,17.5-2.006A35.466,35.466,0,0,0-.211,16.177,35.333,35.333,0,0,0,10.713,2.813,37.393,37.393,0,0,0-6.783.807,34.033,34.033,0,0,0-8.86-16.081,36.5,36.5,0,0,0-22.691-5.561a36.219,36.219,0,0,0-13.831-10.52" transform="translate(80 39.181)" fill="none" stroke="rgba(188,150,97,0.5)" stroke-miterlimit="10" stroke-width="0.4"/>
        <path id="Path_106" data-name="Path 106" d="M.908,73.492A35.044,35.044,0,0,0,13.259,53.2a35.879,35.879,0,0,1-7.024.663A37.721,37.721,0,0,1-8.86,50.724a35.2,35.2,0,0,1-8.36,12.544,36.181,36.181,0,0,1-5.453,4.344,36.181,36.181,0,0,1-5.453-4.344,36.832,36.832,0,0,1-3.2-3.507" transform="translate(80 36.893)" fill="none" stroke="rgba(188,150,97,0.5)" stroke-miterlimit="10" stroke-width="0.4"/>
        <path id="Path_107" data-name="Path 107" d="M13.259,52.865a36.693,36.693,0,0,0,21-11.951" transform="translate(80 37.229)" fill="none" stroke="rgba(188,150,97,0.5)" stroke-miterlimit="10" stroke-width="0.4"/>
        <path id="Path_108" data-name="Path 108" d="M34.276-6.678a36.75,36.75,0,0,0-21-11.951,32.447,32.447,0,0,1,.686,6.787,34.392,34.392,0,0,1-3.25,14.585,36.4,36.4,0,0,1,12.964,8.078,35.735,35.735,0,0,1,4.514,5.286,36.718,36.718,0,0,1-4.514,5.269,38.7,38.7,0,0,1-3.7,3.14" transform="translate(80 39.268)" fill="none" stroke="rgba(188,150,97,0.5)" stroke-miterlimit="10" stroke-width="0.4"/>
        <path id="Path_109" data-name="Path 109" d="M47.33,31.2,32.452,16.811,47.33,2.435" transform="translate(80 38.547)" fill="none" stroke="rgba(188,150,97,0.5)" stroke-miterlimit="10" stroke-width="0.4"/>
        <path id="Path_110" data-name="Path 110" d="M98.158,53.289l-14.9,14.376L68.383,53.289" transform="translate(80 36.805)" fill="none" stroke="rgba(188,150,97,0.5)" stroke-miterlimit="10" stroke-width="0.4"/>
        <path id="Path_111" data-name="Path 111" d="M119.211,2.435l14.878,14.376L119.211,31.2" transform="translate(80 38.547)" fill="none" stroke="rgba(188,150,97,0.5)" stroke-miterlimit="10" stroke-width="0.4"/>
        <path id="Path_112" data-name="Path 112" d="M54.209,17.339l8.5,8.217V37.193H74.757l8.5,8.217,8.522-8.217h12.043V25.556" transform="translate(80 38.036)" fill="none" stroke="rgba(188,150,97,0.5)" stroke-miterlimit="10" stroke-width="0.4"/>
        <path id="Path_113" data-name="Path 113" d="M62.714,8.108V-3.529H74.757l8.5-8.217,8.522,8.217h12.043V8.108l8.5,8.235" transform="translate(80 39.032)" fill="none" stroke="rgba(188,150,97,0.5)" stroke-miterlimit="10" stroke-width="0.4"/>
        <path id="Path_114" data-name="Path 114" d="M59.681,65.479l-25.4-24.565" transform="translate(80 37.229)" fill="none" stroke="rgba(188,150,97,0.5)" stroke-miterlimit="10" stroke-width="0.4"/>
        <path id="Path_115" data-name="Path 115" d="M132.247,40.914,106.86,65.479" transform="translate(80 37.229)" fill="none" stroke="rgba(188,150,97,0.5)" stroke-miterlimit="10" stroke-width="0.4"/>
        <path id="Path_116" data-name="Path 116" d="M259.234,31.2l-14.9-14.393,14.9-14.376" transform="translate(80 38.547)" fill="none" stroke="rgba(188,150,97,0.5)" stroke-miterlimit="10" stroke-width="0.4"/>
        <path id="Path_117" data-name="Path 117" d="M310.061,53.289l-14.9,14.376L280.287,53.289" transform="translate(80 36.805)" fill="none" stroke="rgba(188,150,97,0.5)" stroke-miterlimit="10" stroke-width="0.4"/>
        <path id="Path_118" data-name="Path 118" d="M331.115,2.435l14.878,14.376L331.115,31.2" transform="translate(80 38.547)" fill="none" stroke="rgba(188,150,97,0.5)" stroke-miterlimit="10" stroke-width="0.4"/>
        <path id="Path_119" data-name="Path 119" d="M266.1,17.339l8.523,8.217V37.193h12.043l8.5,8.217,8.523-8.217h12.043V25.556" transform="translate(80 38.036)" fill="none" stroke="rgba(188,150,97,0.5)" stroke-miterlimit="10" stroke-width="0.4"/>
        <path id="Path_120" data-name="Path 120" d="M274.618,8.108V-3.529h12.043l8.5-8.217,8.523,8.217h12.043V8.108l8.5,8.235" transform="translate(80 39.032)" fill="none" stroke="rgba(188,150,97,0.5)" stroke-miterlimit="10" stroke-width="0.4"/>
        <path id="Path_121" data-name="Path 121" d="M271.566,65.479l-25.4-24.565" transform="translate(80 37.229)" fill="none" stroke="rgba(188,150,97,0.5)" stroke-miterlimit="10" stroke-width="0.4"/>
        <path id="Path_122" data-name="Path 122" d="M344.151,40.914,318.764,65.479" transform="translate(80 37.229)" fill="none" stroke="rgba(188,150,97,0.5)" stroke-miterlimit="10" stroke-width="0.4"/>
        <path id="Path_123" data-name="Path 123" d="M628.82,40.812a34.627,34.627,0,0,0,.054-9.264,37.617,37.617,0,0,0,17.5-2.006,35.456,35.456,0,0,0-10.924-13.364A35.323,35.323,0,0,0,646.37,2.813a37.392,37.392,0,0,0-17.5-2.006A34.044,34.044,0,0,0,626.8-16.081a36.493,36.493,0,0,0-13.831,10.52,36.218,36.218,0,0,0-13.831-10.52" transform="translate(80 39.181)" fill="none" stroke="rgba(188,150,97,0.5)" stroke-miterlimit="10" stroke-width="0.4"/>
        <path id="Path_124" data-name="Path 124" d="M597.1-7.79a33.513,33.513,0,0,0,0,8.915,37.392,37.392,0,0,0-17.5,2.006A35.463,35.463,0,0,0,590.523,16.5,35.329,35.329,0,0,0,579.6,29.86a37.619,37.619,0,0,0,17.5,2.006,34.032,34.032,0,0,0,2.076,16.888A36.492,36.492,0,0,0,613,38.234a36.218,36.218,0,0,0,13.831,10.52" transform="translate(80 38.897)" fill="none" stroke="rgba(188,150,97,0.5)" stroke-miterlimit="10" stroke-width="0.4"/>
        <path id="Path_125" data-name="Path 125" d="M577.036,53.289a35.1,35.1,0,0,0,12.35,20.29" transform="translate(80 36.805)" fill="none" stroke="rgba(188,150,97,0.5)" stroke-miterlimit="10" stroke-width="0.4"/>
        <path id="Path_126" data-name="Path 126" d="M556.037,39.832a36.749,36.749,0,0,0,21,11.951A32.4,32.4,0,0,1,576.35,45a34.658,34.658,0,0,1,3.231-14.585,36.814,36.814,0,0,1-12.964-8.078,36.734,36.734,0,0,1-4.514-5.269,35.747,35.747,0,0,1,4.514-5.286,36.976,36.976,0,0,1,2.817-2.46" transform="translate(80 38.311)" fill="none" stroke="rgba(188,150,97,0.5)" stroke-miterlimit="10" stroke-width="0.4"/>
        <path id="Path_127" data-name="Path 127" d="M636.584,73.492a35.046,35.046,0,0,0,12.35-20.29,35.878,35.878,0,0,1-7.024.663,37.719,37.719,0,0,1-15.094-3.14,35.206,35.206,0,0,1-8.36,12.544A36.162,36.162,0,0,1,613,67.612a36.162,36.162,0,0,1-5.453-4.344,36.775,36.775,0,0,1-3.2-3.507" transform="translate(80 36.893)" fill="none" stroke="rgba(188,150,97,0.5)" stroke-miterlimit="10" stroke-width="0.4"/>
        <path id="Path_128" data-name="Path 128" d="M648.934,52.865a36.691,36.691,0,0,0,21-11.951" transform="translate(80 37.229)" fill="none" stroke="rgba(188,150,97,0.5)" stroke-miterlimit="10" stroke-width="0.4"/>
        <path id="Path_129" data-name="Path 129" d="M669.933-6.678a36.748,36.748,0,0,0-21-11.951,32.409,32.409,0,0,1,.686,6.787,34.384,34.384,0,0,1-3.25,14.585,36.391,36.391,0,0,1,12.964,8.078,35.7,35.7,0,0,1,4.514,5.286,36.671,36.671,0,0,1-4.514,5.269,38.611,38.611,0,0,1-3.7,3.14" transform="translate(80 39.268)" fill="none" stroke="rgba(188,150,97,0.5)" stroke-miterlimit="10" stroke-width="0.4"/>
        <path id="Path_130" data-name="Path 130" d="M416.934,40.812a34.584,34.584,0,0,0,.054-9.264,37.616,37.616,0,0,0,17.5-2.006,35.463,35.463,0,0,0-10.923-13.364A35.33,35.33,0,0,0,434.484,2.813a37.392,37.392,0,0,0-17.5-2.006,34.032,34.032,0,0,0-2.076-16.888,36.493,36.493,0,0,0-13.831,10.52,36.218,36.218,0,0,0-13.831-10.52" transform="translate(80 39.181)" fill="none" stroke="rgba(188,150,97,0.5)" stroke-miterlimit="10" stroke-width="0.4"/>
        <path id="Path_131" data-name="Path 131" d="M385.21-7.79a33.516,33.516,0,0,0,0,8.915,37.392,37.392,0,0,0-17.5,2.006A35.457,35.457,0,0,0,378.638,16.5,35.323,35.323,0,0,0,367.714,29.86a37.619,37.619,0,0,0,17.5,2.006,34.043,34.043,0,0,0,2.076,16.888,36.493,36.493,0,0,0,13.831-10.52,36.218,36.218,0,0,0,13.831,10.52" transform="translate(80 38.897)" fill="none" stroke="rgba(188,150,97,0.5)" stroke-miterlimit="10" stroke-width="0.4"/>
        <path id="Path_132" data-name="Path 132" d="M365.15,53.289a35.1,35.1,0,0,0,12.35,20.29" transform="translate(80 36.805)" fill="none" stroke="rgba(188,150,97,0.5)" stroke-miterlimit="10" stroke-width="0.4"/>
        <path id="Path_133" data-name="Path 133" d="M344.151,39.832a36.748,36.748,0,0,0,21,11.951A32.407,32.407,0,0,1,364.464,45,34.643,34.643,0,0,1,367.7,30.411a36.8,36.8,0,0,1-12.964-8.078,36.674,36.674,0,0,1-4.514-5.269,35.691,35.691,0,0,1,4.514-5.286,36.775,36.775,0,0,1,2.816-2.46" transform="translate(80 38.311)" fill="none" stroke="rgba(188,150,97,0.5)" stroke-miterlimit="10" stroke-width="0.4"/>
        <path id="Path_134" data-name="Path 134" d="M424.7,73.492a35.046,35.046,0,0,0,12.35-20.29,35.875,35.875,0,0,1-7.023.663,37.72,37.72,0,0,1-15.1-3.14,35.206,35.206,0,0,1-8.36,12.544,36.162,36.162,0,0,1-5.453,4.344,36.211,36.211,0,0,1-5.453-4.344,36.914,36.914,0,0,1-3.2-3.507" transform="translate(80 36.893)" fill="none" stroke="rgba(188,150,97,0.5)" stroke-miterlimit="10" stroke-width="0.4"/>
        <path id="Path_135" data-name="Path 135" d="M437.048,52.865a36.691,36.691,0,0,0,21-11.951" transform="translate(80 37.229)" fill="none" stroke="rgba(188,150,97,0.5)" stroke-miterlimit="10" stroke-width="0.4"/>
        <path id="Path_136" data-name="Path 136" d="M458.047-6.678a36.748,36.748,0,0,0-21-11.951,32.407,32.407,0,0,1,.687,6.787,34.385,34.385,0,0,1-3.251,14.585,36.4,36.4,0,0,1,12.965,8.078,35.756,35.756,0,0,1,4.514,5.286,36.733,36.733,0,0,1-4.514,5.269,38.75,38.75,0,0,1-3.7,3.14" transform="translate(80 39.268)" fill="none" stroke="rgba(188,150,97,0.5)" stroke-miterlimit="10" stroke-width="0.4"/>
        <path id="Path_137" data-name="Path 137" d="M471.12,31.2l-14.9-14.393,14.9-14.376" transform="translate(80 38.547)" fill="none" stroke="rgba(188,150,97,0.5)" stroke-miterlimit="10" stroke-width="0.4"/>
        <path id="Path_138" data-name="Path 138" d="M521.929,53.289,507.051,67.665,492.173,53.289" transform="translate(80 36.805)" fill="none" stroke="rgba(188,150,97,0.5)" stroke-miterlimit="10" stroke-width="0.4"/>
        <path id="Path_139" data-name="Path 139" d="M543,2.435l14.878,14.376L543,31.2" transform="translate(80 38.547)" fill="none" stroke="rgba(188,150,97,0.5)" stroke-miterlimit="10" stroke-width="0.4"/>
        <path id="Path_140" data-name="Path 140" d="M477.981,17.339l8.522,8.217V37.193h12.044l8.5,8.217,8.522-8.217H527.6V25.556" transform="translate(80 38.036)" fill="none" stroke="rgba(188,150,97,0.5)" stroke-miterlimit="10" stroke-width="0.4"/>
        <path id="Path_141" data-name="Path 141" d="M486.5,8.108V-3.529h12.044l8.5-8.217,8.522,8.217H527.6V8.108l8.522,8.235" transform="translate(80 39.032)" fill="none" stroke="rgba(188,150,97,0.5)" stroke-miterlimit="10" stroke-width="0.4"/>
        <path id="Path_142" data-name="Path 142" d="M483.452,65.479l-25.4-24.565" transform="translate(80 37.229)" fill="none" stroke="rgba(188,150,97,0.5)" stroke-miterlimit="10" stroke-width="0.4"/>
        <path id="Path_143" data-name="Path 143" d="M556.037,40.914,530.65,65.479" transform="translate(80 37.229)" fill="none" stroke="rgba(188,150,97,0.5)" stroke-miterlimit="10" stroke-width="0.4"/>
        <path id="Path_144" data-name="Path 144" d="M683.006,31.2,668.128,16.811,683.006,2.435" transform="translate(80 38.547)" fill="none" stroke="rgba(188,150,97,0.5)" stroke-miterlimit="10" stroke-width="0.4"/>
        <path id="Path_145" data-name="Path 145" d="M733.833,53.289,718.955,67.665l-14.9-14.376" transform="translate(80 36.805)" fill="none" stroke="rgba(188,150,97,0.5)" stroke-miterlimit="10" stroke-width="0.4"/>
        <path id="Path_146" data-name="Path 146" d="M754.886,2.435l14.9,14.376L754.886,31.2" transform="translate(80 38.547)" fill="none" stroke="rgba(188,150,97,0.5)" stroke-miterlimit="10" stroke-width="0.4"/>
        <path id="Path_147" data-name="Path 147" d="M689.885,17.339l8.5,8.217V37.193h12.044l8.522,8.217,8.5-8.217H739.5V25.556" transform="translate(80 38.036)" fill="none" stroke="rgba(188,150,97,0.5)" stroke-miterlimit="10" stroke-width="0.4"/>
        <path id="Path_148" data-name="Path 148" d="M698.389,8.108V-3.529h12.044l8.522-8.217,8.5,8.217H739.5V8.108l8.522,8.235" transform="translate(80 39.032)" fill="none" stroke="rgba(188,150,97,0.5)" stroke-miterlimit="10" stroke-width="0.4"/>
        <path id="Path_149" data-name="Path 149" d="M695.356,65.479,669.951,40.914" transform="translate(80 37.229)" fill="none" stroke="rgba(188,150,97,0.5)" stroke-miterlimit="10" stroke-width="0.4"/>
        <path id="Path_150" data-name="Path 150" d="M767.941,40.914,742.554,65.479" transform="translate(80 37.229)" fill="none" stroke="rgba(188,150,97,0.5)" stroke-miterlimit="10" stroke-width="0.4"/>
        <path id="Path_151" data-name="Path 151" d="M1052.61,40.812a34.622,34.622,0,0,0,.05-9.264,37.636,37.636,0,0,0,17.5-2.006,35.484,35.484,0,0,0-10.92-13.364,35.351,35.351,0,0,0,10.92-13.364,37.41,37.41,0,0,0-17.5-2.006,34.04,34.04,0,0,0-2.07-16.888,36.443,36.443,0,0,0-13.83,10.52,36.214,36.214,0,0,0-13.83-10.52" transform="translate(80 39.181)" fill="none" stroke="rgba(188,150,97,0.5)" stroke-miterlimit="10" stroke-width="0.4"/>
        <path id="Path_152" data-name="Path 152" d="M1020.89-7.79a33.265,33.265,0,0,0,0,8.915,37.4,37.4,0,0,0-17.5,2.006A35.483,35.483,0,0,0,1014.31,16.5a35.349,35.349,0,0,0-10.92,13.364,37.622,37.622,0,0,0,17.5,2.006,34.04,34.04,0,0,0,2.07,16.888,36.52,36.52,0,0,0,13.83-10.52,36.215,36.215,0,0,0,13.83,10.52" transform="translate(80 38.897)" fill="none" stroke="rgba(188,150,97,0.5)" stroke-miterlimit="10" stroke-width="0.4"/>
        <path id="Path_153" data-name="Path 153" d="M1000.83,53.289a35.039,35.039,0,0,0,12.35,20.29" transform="translate(80 36.805)" fill="none" stroke="rgba(188,150,97,0.5)" stroke-miterlimit="10" stroke-width="0.4"/>
        <path id="Path_154" data-name="Path 154" d="M979.808,39.832a36.753,36.753,0,0,0,21,11.951,32.41,32.41,0,0,1-.69-6.787,34.779,34.779,0,0,1,3.23-14.585,36.829,36.829,0,0,1-12.961-8.078,36.738,36.738,0,0,1-4.514-5.269,35.751,35.751,0,0,1,4.514-5.286,36.988,36.988,0,0,1,2.817-2.46" transform="translate(80 38.311)" fill="none" stroke="rgba(188,150,97,0.5)" stroke-miterlimit="10" stroke-width="0.4"/>
        <path id="Path_155" data-name="Path 155" d="M1060.36,73.492a35.086,35.086,0,0,0,12.35-20.29,35.989,35.989,0,0,1-7.03.663,37.685,37.685,0,0,1-15.09-3.14,35.232,35.232,0,0,1-8.36,12.544,36.066,36.066,0,0,1-5.46,4.344,36.7,36.7,0,0,1-8.64-7.851" transform="translate(80 36.893)" fill="none" stroke="rgba(188,150,97,0.5)" stroke-miterlimit="10" stroke-width="0.4"/>
        <path id="Path_156" data-name="Path 156" d="M1072.71,52.865a36.661,36.661,0,0,0,20.99-11.951" transform="translate(80 37.229)" fill="none" stroke="rgba(188,150,97,0.5)" stroke-miterlimit="10" stroke-width="0.4"/>
        <path id="Path_157" data-name="Path 157" d="M1093.72-6.678a36.751,36.751,0,0,0-21-11.951,32.41,32.41,0,0,1,.69,6.787,34.34,34.34,0,0,1-3.25,14.585,36.392,36.392,0,0,1,12.96,8.078,35.507,35.507,0,0,1,4.52,5.286,36.594,36.594,0,0,1-4.52,5.269,38.495,38.495,0,0,1-3.7,3.14" transform="translate(80 39.268)" fill="none" stroke="rgba(188,150,97,0.5)" stroke-miterlimit="10" stroke-width="0.4"/>
        <path id="Path_158" data-name="Path 158" d="M840.724,40.812a34.627,34.627,0,0,0,.054-9.264,37.617,37.617,0,0,0,17.5-2.006A35.456,35.456,0,0,0,847.35,16.177,35.323,35.323,0,0,0,858.274,2.813a37.392,37.392,0,0,0-17.5-2.006A34.044,34.044,0,0,0,838.7-16.081a36.493,36.493,0,0,0-13.831,10.52,36.218,36.218,0,0,0-13.831-10.52" transform="translate(80 39.181)" fill="none" stroke="rgba(188,150,97,0.5)" stroke-miterlimit="10" stroke-width="0.4"/>
        <path id="Path_159" data-name="Path 159" d="M809-7.79a33.432,33.432,0,0,0,0,8.915,37.39,37.39,0,0,0-17.5,2.006A35.463,35.463,0,0,0,802.427,16.5,35.329,35.329,0,0,0,791.5,29.86,37.617,37.617,0,0,0,809,31.866a34.032,34.032,0,0,0,2.076,16.888,36.492,36.492,0,0,0,13.831-10.52,36.219,36.219,0,0,0,13.831,10.52" transform="translate(80 38.897)" fill="none" stroke="rgba(188,150,97,0.5)" stroke-miterlimit="10" stroke-width="0.4"/>
        <path id="Path_160" data-name="Path 160" d="M788.94,53.289a35.1,35.1,0,0,0,12.35,20.29" transform="translate(80 36.805)" fill="none" stroke="rgba(188,150,97,0.5)" stroke-miterlimit="10" stroke-width="0.4"/>
        <path id="Path_161" data-name="Path 161" d="M767.941,39.832a36.749,36.749,0,0,0,21,11.951A32.4,32.4,0,0,1,788.253,45a34.658,34.658,0,0,1,3.232-14.585,36.814,36.814,0,0,1-12.964-8.078,36.734,36.734,0,0,1-4.514-5.269,35.751,35.751,0,0,1,4.514-5.286,36.976,36.976,0,0,1,2.817-2.46" transform="translate(80 38.311)" fill="none" stroke="rgba(188,150,97,0.5)" stroke-miterlimit="10" stroke-width="0.4"/>
        <path id="Path_162" data-name="Path 162" d="M848.488,73.492a35.046,35.046,0,0,0,12.35-20.29,35.878,35.878,0,0,1-7.024.663,37.719,37.719,0,0,1-15.094-3.14,35.206,35.206,0,0,1-8.36,12.544,36.159,36.159,0,0,1-5.453,4.344,36.162,36.162,0,0,1-5.453-4.344,36.775,36.775,0,0,1-3.2-3.507" transform="translate(80 36.893)" fill="none" stroke="rgba(188,150,97,0.5)" stroke-miterlimit="10" stroke-width="0.4"/>
        <path id="Path_163" data-name="Path 163" d="M860.82,52.865a36.691,36.691,0,0,0,21-11.951" transform="translate(80 37.229)" fill="none" stroke="rgba(188,150,97,0.5)" stroke-miterlimit="10" stroke-width="0.4"/>
        <path id="Path_164" data-name="Path 164" d="M881.837-6.678a36.748,36.748,0,0,0-21-11.951,32.409,32.409,0,0,1,.686,6.787,34.384,34.384,0,0,1-3.25,14.585,36.391,36.391,0,0,1,12.964,8.078,35.694,35.694,0,0,1,4.514,5.286,36.667,36.667,0,0,1-4.514,5.269,38.611,38.611,0,0,1-3.7,3.14" transform="translate(80 39.268)" fill="none" stroke="rgba(188,150,97,0.5)" stroke-miterlimit="10" stroke-width="0.4"/>
        <path id="Path_165" data-name="Path 165" d="M894.891,31.2,880.013,16.811,894.891,2.435" transform="translate(80 38.547)" fill="none" stroke="rgba(188,150,97,0.5)" stroke-miterlimit="10" stroke-width="0.4"/>
        <path id="Path_166" data-name="Path 166" d="M945.719,53.289l-14.9,14.376L915.945,53.289" transform="translate(80 36.805)" fill="none" stroke="rgba(188,150,97,0.5)" stroke-miterlimit="10" stroke-width="0.4"/>
        <path id="Path_167" data-name="Path 167" d="M966.772,2.435,981.65,16.811,966.772,31.2" transform="translate(80 38.547)" fill="none" stroke="rgba(188,150,97,0.5)" stroke-miterlimit="10" stroke-width="0.4"/>
        <path id="Path_168" data-name="Path 168" d="M901.771,17.339l8.5,8.217V37.193h12.043l8.523,8.217,8.5-8.217h12.043V25.556" transform="translate(80 38.036)" fill="none" stroke="rgba(188,150,97,0.5)" stroke-miterlimit="10" stroke-width="0.4"/>
        <path id="Path_169" data-name="Path 169" d="M910.275,8.108V-3.529h12.043l8.523-8.217,8.5,8.217h12.043V8.108l8.505,8.235" transform="translate(80 39.032)" fill="none" stroke="rgba(188,150,97,0.5)" stroke-miterlimit="10" stroke-width="0.4"/>
        <path id="Path_170" data-name="Path 170" d="M907.242,65.479,881.837,40.914" transform="translate(80 37.229)" fill="none" stroke="rgba(188,150,97,0.5)" stroke-miterlimit="10" stroke-width="0.4"/>
        <path id="Path_171" data-name="Path 171" d="M979.808,40.914,954.44,65.479" transform="translate(80 37.229)" fill="none" stroke="rgba(188,150,97,0.5)" stroke-miterlimit="10" stroke-width="0.4"/>
        <path id="Path_172" data-name="Path 172" d="M1106.8,31.2l-14.88-14.393L1106.8,2.435" transform="translate(80 38.547)" fill="none" stroke="rgba(188,150,97,0.5)" stroke-miterlimit="10" stroke-width="0.4"/>
        <path id="Path_173" data-name="Path 173" d="M1157.62,53.289l-14.89,14.376-14.88-14.376" transform="translate(80 36.805)" fill="none" stroke="rgba(188,150,97,0.5)" stroke-miterlimit="10" stroke-width="0.4"/>
        <path id="Path_174" data-name="Path 174" d="M1178.68,2.435l14.87,14.376L1178.68,31.2" transform="translate(80 38.547)" fill="none" stroke="rgba(188,150,97,0.5)" stroke-miterlimit="10" stroke-width="0.4"/>
        <path id="Path_175" data-name="Path 175" d="M1113.67,17.339l8.51,8.217V37.193h12.04l8.51,8.217,8.52-8.217h12.04V25.556" transform="translate(80 38.036)" fill="none" stroke="rgba(188,150,97,0.5)" stroke-miterlimit="10" stroke-width="0.4"/>
        <path id="Path_176" data-name="Path 176" d="M1122.18,8.108V-3.529h12.04l8.51-8.217,8.52,8.217h12.04V8.108l8.51,8.235" transform="translate(80 39.032)" fill="none" stroke="rgba(188,150,97,0.5)" stroke-miterlimit="10" stroke-width="0.4"/>
        <path id="Path_177" data-name="Path 177" d="M1119.15,65.479l-25.41-24.565" transform="translate(80 37.229)" fill="none" stroke="rgba(188,150,97,0.5)" stroke-miterlimit="10" stroke-width="0.4"/>
        <path id="Path_178" data-name="Path 178" d="M1191.71,40.914l-25.38,24.565" transform="translate(80 37.229)" fill="none" stroke="rgba(188,150,97,0.5)" stroke-miterlimit="10" stroke-width="0.4"/>
      </g>
      <rect id="Rectangle_4" data-name="Rectangle 4" width="1083" height="143" transform="translate(357)" fill="none"/>
    </g>
  </g>
</svg>
