<svg width="144" height="52" viewBox="0 0 144 52" fill="none" xmlns="http://www.w3.org/2000/svg">
<g clip-path="url(#clip0_792_2755)">
<path d="M125.685 37.5353C125.877 36.1103 125.884 34.6719 125.712 33.2469C128.3 33.5779 130.934 33.2672 133.396 32.3218C132.308 29.8771 130.655 27.7498 128.598 26.1425C130.655 24.5353 132.314 22.408 133.396 19.9633C130.941 19.0111 128.286 18.7005 125.712 19.0381C126.037 16.4179 125.732 13.7233 124.802 11.2246C122.407 12.3186 120.317 14.0069 118.731 16.0937C117.138 14.0069 115.054 12.3186 112.659 11.2246" stroke="#B6925A" stroke-opacity="0.7" stroke-width="0.6" stroke-miterlimit="10"/>
<path d="M111.743 14.9053C111.57 16.2762 111.57 17.6606 111.743 19.0248C109.155 18.6871 106.521 19.0045 104.059 19.95C105.147 22.3946 106.799 24.5219 108.856 26.1292C106.799 27.7364 105.14 29.8637 104.059 32.3084C106.521 33.2606 109.162 33.5645 111.743 33.2336C111.418 35.8538 111.723 38.5484 112.652 41.0471C115.048 39.9531 117.138 38.2648 118.724 36.178C120.317 38.2648 122.4 39.9531 124.796 41.0471" stroke="#B6925A" stroke-opacity="0.7" stroke-width="0.6" stroke-miterlimit="10"/>
<path d="M102.93 42.208C103.64 45.9493 105.604 49.2314 108.358 51.595" stroke="#B6925A" stroke-opacity="0.7" stroke-width="0.6" stroke-miterlimit="10"/>
<path d="M102.93 10.0625C99.254 10.7851 96.0223 12.7841 93.6997 15.5934" stroke="#B6925A" stroke-opacity="0.7" stroke-width="0.6" stroke-miterlimit="10"/>
<path d="M93.6997 36.6845C96.0223 39.4939 99.254 41.4928 102.93 42.2154C102.725 41.1957 102.632 40.1422 102.632 39.0684C102.632 36.6575 103.143 34.3749 104.058 32.3219C101.988 31.5318 100.037 30.2824 98.3648 28.5806C97.6215 27.8243 96.958 27.0004 96.3806 26.1427C96.9513 25.2783 97.6083 24.4611 98.3648 23.698C98.7629 23.2928 99.1744 22.9146 99.6057 22.5635" stroke="#B6925A" stroke-opacity="0.7" stroke-width="0.6" stroke-miterlimit="10"/>
<path d="M134.518 10.0628C133.808 6.3215 131.843 3.03942 129.089 0.675781" stroke="#B6925A" stroke-opacity="0.7" stroke-width="0.6" stroke-miterlimit="10"/>
<path d="M108.352 0.675781C105.605 3.03942 103.634 6.3215 102.924 10.0628C103.926 9.85344 104.961 9.7589 106.016 9.7589C108.385 9.7589 110.628 10.2789 112.645 11.2176C113.422 9.10383 114.65 7.11163 116.322 5.40981C117.065 4.65344 117.875 3.97812 118.717 3.39734C119.56 3.97137 120.37 4.64669 121.113 5.40981C121.372 5.67318 121.617 5.94331 121.856 6.21344" stroke="#B6925A" stroke-opacity="0.7" stroke-width="0.6" stroke-miterlimit="10"/>
<path d="M129.089 51.5955C131.837 49.2319 133.807 45.9498 134.518 42.2085C133.516 42.4179 132.48 42.5124 131.425 42.5124C129.056 42.5124 126.813 41.9924 124.796 41.0537C124.019 43.1675 122.792 45.1597 121.12 46.8615C120.376 47.6179 119.567 48.2932 118.724 48.874C117.881 48.2999 117.072 47.6246 116.328 46.8615C115.817 46.3415 115.353 45.8012 114.928 45.234" stroke="#B6925A" stroke-opacity="0.7" stroke-width="0.6" stroke-miterlimit="10"/>
<path d="M134.518 42.2086C138.194 41.486 141.426 39.4871 143.748 36.6777" stroke="#B6925A" stroke-opacity="0.7" stroke-width="0.6" stroke-miterlimit="10"/>
<path d="M143.748 15.5934C141.425 12.7841 138.194 10.7851 134.517 10.0625C134.723 11.0822 134.816 12.1357 134.816 13.2095C134.816 15.6204 134.305 17.903 133.389 19.956C135.466 20.7461 137.411 21.9887 139.083 23.6906C139.839 24.4604 140.49 25.2708 141.067 26.1352C140.496 26.9929 139.833 27.8168 139.083 28.5731C138.565 29.0999 138.021 29.5861 137.457 30.0251" stroke="#B6925A" stroke-opacity="0.7" stroke-width="0.6" stroke-miterlimit="10"/>
<path d="M32.7485 37.6358C32.941 36.2109 32.9476 34.7725 32.7751 33.3475C35.3631 33.6784 37.9976 33.3678 40.4595 32.4223C39.3712 29.9777 37.7189 27.8504 35.6617 26.2431C37.7189 24.6358 39.3778 22.5086 40.4595 20.0639C38.0042 19.1117 35.3498 18.801 32.7751 19.1387C33.1002 16.5184 32.795 13.8239 31.8659 11.3252C29.4704 12.4192 27.38 14.1075 25.7941 16.1943C24.2014 14.1075 22.1177 12.4192 19.7222 11.3252" stroke="#B6925A" stroke-opacity="0.7" stroke-width="0.6" stroke-miterlimit="10"/>
<path d="M18.8065 15.0059C18.634 16.3768 18.634 17.7612 18.8065 19.1253C16.2185 18.7877 13.584 19.1051 11.1221 20.0505C12.2104 22.4952 13.8627 24.6225 15.9199 26.2298C13.8627 27.837 12.2037 29.9643 11.1221 32.409C13.584 33.3612 16.2251 33.6651 18.8065 33.3342C18.4813 35.9544 18.7866 38.649 19.7156 41.1477C22.1112 40.0537 24.2015 38.3653 25.7875 36.2786C27.3801 38.3653 29.4638 40.0537 31.8594 41.1477" stroke="#B6925A" stroke-opacity="0.7" stroke-width="0.6" stroke-miterlimit="10"/>
<path d="M9.99365 42.3086C10.7037 46.0499 12.6679 49.332 15.4219 51.6956" stroke="#B6925A" stroke-opacity="0.7" stroke-width="0.6" stroke-miterlimit="10"/>
<path d="M9.99378 10.1631C6.31747 10.8857 3.08576 12.8846 0.763184 15.694" stroke="#B6925A" stroke-opacity="0.7" stroke-width="0.6" stroke-miterlimit="10"/>
<path d="M0.763184 36.7851C3.08576 39.5945 6.31747 41.5934 9.99378 42.316C9.78807 41.2963 9.69516 40.2428 9.69516 39.169C9.69516 36.7581 10.2061 34.4755 11.1219 32.4225C9.05148 31.6324 7.10051 30.383 5.42825 28.6812C4.68503 27.9248 4.02143 27.1009 3.44411 26.2433C4.0148 25.3789 4.67175 24.5617 5.42825 23.7986C5.82641 23.3934 6.23784 23.0152 6.66917 22.6641" stroke="#B6925A" stroke-opacity="0.7" stroke-width="0.6" stroke-miterlimit="10"/>
<path d="M41.5874 10.1634C40.8773 6.42208 38.9131 3.14 36.1592 0.776367" stroke="#B6925A" stroke-opacity="0.7" stroke-width="0.6" stroke-miterlimit="10"/>
<path d="M15.4219 0.776367C12.6746 3.14 10.7037 6.42208 9.99365 10.1634C10.9957 9.95403 12.0309 9.85948 13.086 9.85948C15.455 9.85948 17.698 10.3795 19.7153 11.3182C20.4917 9.20442 21.7194 7.21221 23.3916 5.51039C24.1348 4.75403 24.9444 4.0787 25.7872 3.49793C26.63 4.07195 27.4396 4.74728 28.1828 5.51039C28.4416 5.77377 28.6871 6.0439 28.926 6.31403" stroke="#B6925A" stroke-opacity="0.7" stroke-width="0.6" stroke-miterlimit="10"/>
<path d="M36.1592 51.6961C38.9064 49.3325 40.8773 46.0504 41.5874 42.3091C40.5853 42.5185 39.5501 42.613 38.495 42.613C36.126 42.613 33.883 42.093 31.8657 41.1543C31.0893 43.2681 29.8616 45.2603 28.1894 46.9621C27.4462 47.7185 26.6366 48.3938 25.7938 48.9746C24.951 48.4005 24.1415 47.7252 23.3982 46.9621C22.8873 46.4421 22.4227 45.9018 21.998 45.3346" stroke="#B6925A" stroke-opacity="0.7" stroke-width="0.6" stroke-miterlimit="10"/>
<path d="M41.5874 42.3092C45.2637 41.5866 48.4954 39.5877 50.818 36.7783" stroke="#B6925A" stroke-opacity="0.7" stroke-width="0.6" stroke-miterlimit="10"/>
<path d="M50.8182 15.694C48.4956 12.8846 45.2639 10.8857 41.5876 10.1631C41.7933 11.1828 41.8862 12.2363 41.8862 13.3101C41.8862 15.721 41.3752 18.0036 40.4595 20.0566C42.5365 20.8467 44.4809 22.0893 46.1531 23.7911C46.9096 24.561 47.5599 25.3714 48.1373 26.2358C47.5666 27.0935 46.903 27.9174 46.1531 28.6737C45.6355 29.2005 45.0914 29.6867 44.5273 30.1257" stroke="#B6925A" stroke-opacity="0.7" stroke-width="0.6" stroke-miterlimit="10"/>
<path d="M56.5052 32.7599L49.9688 26.1012L56.5052 19.4492" stroke="#B6925A" stroke-opacity="0.7" stroke-width="0.6" stroke-miterlimit="10"/>
<path d="M78.8417 42.1748L72.2986 48.8335L65.7622 42.1748" stroke="#B6925A" stroke-opacity="0.7" stroke-width="0.6" stroke-miterlimit="10"/>
<path d="M88.0923 19.4492L94.6353 26.1012L88.0923 32.7599" stroke="#B6925A" stroke-opacity="0.7" stroke-width="0.6" stroke-miterlimit="10"/>
<path d="M65.7622 10.0357L72.2986 3.37695L78.8417 10.0357" stroke="#B6925A" stroke-opacity="0.7" stroke-width="0.6" stroke-miterlimit="10"/>
<path d="M59.5312 26.1016L63.2673 29.9104V35.2927H68.5628L72.2988 39.1016L76.0415 35.2927H81.3303V29.9104" stroke="#B6925A" stroke-opacity="0.7" stroke-width="0.6" stroke-miterlimit="10"/>
<path d="M63.2671 22.2996V16.9105H68.5626L72.2986 13.1084L76.0413 16.9105H81.3301V22.2996L85.0728 26.1016" stroke="#B6925A" stroke-opacity="0.7" stroke-width="0.6" stroke-miterlimit="10"/>
<path d="M82.6709 4.19434L93.8259 15.5601" stroke="#B6925A" stroke-opacity="0.7" stroke-width="0.6" stroke-miterlimit="10"/>
<path d="M50.7715 15.5601L61.9331 4.19434" stroke="#B6925A" stroke-opacity="0.7" stroke-width="0.6" stroke-miterlimit="10"/>
<path d="M61.9331 48.0161L50.7715 36.6504" stroke="#B6925A" stroke-opacity="0.7" stroke-width="0.6" stroke-miterlimit="10"/>
<path d="M93.8259 36.6504L82.6709 48.0161" stroke="#B6925A" stroke-opacity="0.7" stroke-width="0.6" stroke-miterlimit="10"/>
</g>
<defs>
<clipPath id="clip0_792_2755">
<rect width="144" height="52" fill="white"/>
</clipPath>
</defs>
</svg>
