<svg width="95" height="91" viewBox="0 0 95 91" fill="none" xmlns="http://www.w3.org/2000/svg">
<g opacity="0.4">
<path d="M63.7111 79.5153L93.6148 62.2485L63.7111 44.9816V10.4478L33.8074 27.7147L3.9037 10.4478V44.9816L-26 62.2485L3.9037 79.5153V114.041L33.8074 96.7737L63.7111 114.041V79.5153Z" stroke="#736D5F" stroke-opacity="0.4" stroke-width="1.15" stroke-miterlimit="10"/>
<path d="M45.3784 55.5634V7.67653L33.8075 1L22.2365 7.67653V42.2103" stroke="#736D5F" stroke-opacity="0.4" stroke-width="1.15" stroke-miterlimit="10"/>
<path d="M22.2365 68.9249L33.8075 75.6015L45.3784 68.9249V55.5633L33.8075 48.8868L22.2365 55.5633V68.9249Z" stroke="#736D5F" stroke-opacity="0.4" stroke-width="1.15" stroke-miterlimit="10"/>
<path d="M22.2365 68.9249V116.812L33.8075 123.497L45.3784 116.812V82.2865" stroke="#736D5F" stroke-opacity="0.4" stroke-width="1.15" stroke-miterlimit="10"/>
<path d="M33.8073 48.8869L-7.6673 24.9435L-19.2383 31.62V44.9816L10.674 62.2485" stroke="#736D5F" stroke-opacity="0.4" stroke-width="1.15" stroke-miterlimit="10"/>
<path d="M33.8066 75.6015L75.2813 99.5534L86.8522 92.8684V79.5153L56.9485 62.2484" stroke="#736D5F" stroke-opacity="0.4" stroke-width="1.15" stroke-miterlimit="10"/>
<path d="M22.2364 55.5634L-19.2383 79.5153V92.8684L-7.6673 99.5534L22.2364 82.2865" stroke="#736D5F" stroke-opacity="0.4" stroke-width="1.15" stroke-miterlimit="10"/>
<path d="M45.3789 68.925L86.8536 44.9816V31.62L75.2826 24.9435L45.3789 42.2104" stroke="#736D5F" stroke-opacity="0.4" stroke-width="1.15" stroke-miterlimit="10"/>
</g>
</svg>
