<svg width="130" height="67" viewBox="0 0 130 67" fill="none" xmlns="http://www.w3.org/2000/svg">
<path d="M44.6265 48.1672C44.8884 46.3329 44.8974 44.4812 44.6626 42.6468C48.1846 43.0728 51.7699 42.6729 55.1203 41.4558C53.6393 38.3088 51.3906 35.5703 48.591 33.5013C51.3906 31.4322 53.6483 28.6938 55.1203 25.5467C51.7789 24.321 48.1666 23.9211 44.6626 24.3557C45.1051 20.9827 44.6897 17.514 43.4254 14.2974C40.1652 15.7057 37.3205 17.8791 35.1622 20.5654C32.9948 17.8791 30.1591 15.7057 26.8989 14.2974" stroke="white" stroke-opacity="0.1" stroke-width="0.64" stroke-miterlimit="10"/>
<path d="M25.6526 19.0356C25.4177 20.8004 25.4177 22.5826 25.6526 24.3387C22.1305 23.904 18.5453 24.3126 15.1948 25.5297C16.6759 28.6767 18.9246 31.4152 21.7241 33.4842C18.9246 35.5533 16.6669 38.2917 15.1948 41.4388C18.5453 42.6646 22.1395 43.0558 25.6526 42.6298C25.21 46.0029 25.6255 49.4716 26.8898 52.6882C30.1499 51.2798 32.9946 49.1064 35.153 46.4202C37.3204 49.1064 40.1561 51.2798 43.4162 52.6882" stroke="white" stroke-opacity="0.1" stroke-width="0.64" stroke-miterlimit="10"/>
<path d="M13.6592 54.1831C14.6255 58.9993 17.2986 63.2243 21.0464 66.2671" stroke="white" stroke-opacity="0.1" stroke-width="0.64" stroke-miterlimit="10"/>
<path d="M13.6591 12.8022C8.65599 13.7325 4.25797 16.3057 1.09717 19.9222" stroke="white" stroke-opacity="0.1" stroke-width="0.64" stroke-miterlimit="10"/>
<path d="M1.09717 47.0634C4.25797 50.6798 8.65599 53.2531 13.6591 54.1833C13.3791 52.8706 13.2527 51.5144 13.2527 50.1322C13.2527 47.0286 13.9481 44.0902 15.1943 41.4474C12.3767 40.4302 9.72163 38.8219 7.44586 36.6312C6.4344 35.6575 5.53132 34.5969 4.74563 33.4928C5.52229 32.38 6.41634 31.3281 7.44586 30.3458C7.98771 29.8242 8.54762 29.3373 9.13463 28.8853" stroke="white" stroke-opacity="0.1" stroke-width="0.64" stroke-miterlimit="10"/>
<path d="M56.646 12.8022C55.6797 7.98602 53.0066 3.76098 49.2588 0.718262" stroke="white" stroke-opacity="0.1" stroke-width="0.64" stroke-miterlimit="10"/>
<path d="M21.0464 0.718262C17.3076 3.76098 14.6255 7.98602 13.6592 12.8022C15.0228 12.5327 16.4317 12.411 17.8676 12.411C21.0916 12.411 24.144 13.0804 26.8894 14.2888C27.946 11.5677 29.6167 9.00316 31.8925 6.8124C32.9039 5.83873 34.0057 4.96938 35.1526 4.22174C36.2995 4.96069 37.4013 5.83004 38.4127 6.8124C38.765 7.15145 39.0991 7.49919 39.4242 7.84693" stroke="white" stroke-opacity="0.1" stroke-width="0.64" stroke-miterlimit="10"/>
<path d="M49.2679 66.2673C53.0067 63.2246 55.6889 58.9996 56.6552 54.1834C55.2915 54.4529 53.8827 54.5746 52.4468 54.5746C49.2228 54.5746 46.1704 53.9052 43.425 52.6968C42.3684 55.4178 40.6977 57.9824 38.4219 60.1732C37.4104 61.1469 36.3087 62.0162 35.1617 62.7638C34.0148 62.0249 32.9131 61.1555 31.9016 60.1732C31.2062 59.5038 30.5741 58.8083 29.9961 58.0781" stroke="white" stroke-opacity="0.1" stroke-width="0.64" stroke-miterlimit="10"/>
<path d="M56.646 54.1834C61.6491 53.2532 66.0471 50.68 69.2079 47.0635" stroke="white" stroke-opacity="0.1" stroke-width="0.64" stroke-miterlimit="10"/>
<path d="M69.208 19.9134C66.0472 16.2969 61.6492 13.7237 56.6461 12.7935C56.926 14.1062 57.0525 15.4624 57.0525 16.8446C57.0525 19.9482 56.3571 22.8866 55.1108 25.5294C57.9375 26.5466 60.5835 28.1462 62.8593 30.3369C63.8888 31.328 64.7739 32.3712 65.5595 33.484C64.7829 34.588 63.8798 35.6487 62.8593 36.6223C62.1549 37.3004 61.4144 37.9264 60.6468 38.4914" stroke="white" stroke-opacity="0.1" stroke-width="0.64" stroke-miterlimit="10"/>
<path d="M77.0194 42.0645L68.124 33.4927L77.0194 24.9209" stroke="white" stroke-opacity="0.1" stroke-width="0.64" stroke-miterlimit="10"/>
<path d="M107.417 54.1831L98.5128 62.7462L89.6084 54.1831" stroke="white" stroke-opacity="0.1" stroke-width="0.64" stroke-miterlimit="10"/>
<path d="M120.006 24.9209L128.911 33.4927L120.006 42.0645" stroke="white" stroke-opacity="0.1" stroke-width="0.64" stroke-miterlimit="10"/>
<path d="M89.6084 12.8023L98.5128 4.23047L107.417 12.8023" stroke="white" stroke-opacity="0.1" stroke-width="0.64" stroke-miterlimit="10"/>
<path d="M81.1289 33.4927L86.2223 38.3958V45.3245H93.4199L98.5133 50.2277L103.607 45.3245H110.804V38.3958" stroke="white" stroke-opacity="0.1" stroke-width="0.64" stroke-miterlimit="10"/>
<path d="M86.2222 28.5897V21.6609H93.4198L98.5132 16.7578L103.607 21.6609H110.804V28.5897L115.898 33.4928" stroke="white" stroke-opacity="0.1" stroke-width="0.64" stroke-miterlimit="10"/>
<path d="M112.628 5.28223L127.809 19.9134" stroke="white" stroke-opacity="0.1" stroke-width="0.64" stroke-miterlimit="10"/>
<path d="M69.208 19.9134L84.4069 5.28223" stroke="white" stroke-opacity="0.1" stroke-width="0.64" stroke-miterlimit="10"/>
<path d="M84.4069 61.7033L69.208 47.0635" stroke="white" stroke-opacity="0.1" stroke-width="0.64" stroke-miterlimit="10"/>
<path d="M127.809 47.0635L112.628 61.7033" stroke="white" stroke-opacity="0.1" stroke-width="0.64" stroke-miterlimit="10"/>
</svg>
